<svg xmlns="http://www.w3.org/2000/svg" width="100%" height="100%" viewBox="0 0 123 30" fill="none" preserveAspectRatio="xMidYMid meet" aria-hidden="true" role="img">
<path fill-rule="evenodd" clip-rule="evenodd" d="M38.1107 7.38526L37.0654 8.17424L37.0647 8.17495C37.0344 8.1977 36.9932 8.19806 36.9623 8.17637C34.5648 6.48215 31.7591 5.57975 28.7969 5.57975C27.9031 5.57975 27.027 5.66508 26.1761 5.82721C25.6524 5.92677 25.4501 6.5689 25.827 6.94579L26.8798 7.99859C27.1688 8.28766 27.4369 8.59308 27.6848 8.91201C27.8995 9.18828 28.2341 9.34793 28.584 9.33512C28.6547 9.33264 28.7258 9.33121 28.7969 9.33121C30.5093 9.33121 32.1964 9.75539 33.6976 10.555C33.7552 10.5856 33.7612 10.6677 33.7089 10.7072L32.595 11.5481C32.5697 11.5669 32.5363 11.5709 32.5075 11.5577C31.9216 11.2935 31.3089 11.0919 30.6803 10.9572C29.8693 10.7829 29.176 11.5314 29.3982 12.3307C29.5216 12.7748 29.614 13.2288 29.673 13.6907C29.6773 13.7252 29.6613 13.7597 29.6321 13.7785L28.452 14.544C28.3959 14.5806 28.323 14.5426 28.3191 14.4754C28.2657 13.5214 28.052 12.5945 27.6933 11.7291C27.4849 11.226 26.9064 10.9493 26.3816 11.0951C25.5422 11.3284 24.7514 11.68 24.0293 12.1319C23.571 12.4185 23.3911 12.9924 23.6115 13.4855C24.1598 14.7125 24.5537 16.0235 24.7678 17.3945C24.7728 17.4272 24.7592 17.4606 24.7326 17.4809L23.587 18.3456C23.5326 18.3865 23.4558 18.3524 23.4487 18.2848C23.321 17.0912 23.0444 15.9428 22.6376 14.8576C22.4296 14.3022 21.6876 14.2187 21.3523 14.7083C20.3639 16.1518 19.7818 17.8933 19.7818 19.7714H19.7804C19.7804 19.778 19.781 19.7843 19.7816 19.7907L19.7816 19.7908C19.7823 19.7972 19.7829 19.8036 19.7829 19.8101C19.7829 23.7401 21.5884 27.1371 24.4677 28.3559C24.4958 28.3677 24.5146 28.4004 24.5146 28.4377V29.7408C24.5146 29.8005 24.468 29.8446 24.4229 29.8279C22.4616 29.1044 20.8467 27.5211 19.8032 25.445C19.4967 24.8352 18.6444 24.8352 18.3379 25.445C17.2944 27.5218 15.6784 29.1051 13.7164 29.8286C13.6712 29.845 13.6247 29.8009 13.6247 29.7412V28.4381C13.6247 28.4007 13.6435 28.368 13.6716 28.3563C16.5516 27.1374 18.3575 23.7401 18.3575 19.8098C18.3575 17.9189 17.7672 16.1664 16.7667 14.7172C16.4296 14.2283 15.6872 14.3147 15.4814 14.8715C15.0785 15.9602 14.8065 17.1122 14.6839 18.3093C14.6771 18.3773 14.6 18.4117 14.5456 18.3705L13.3971 17.504C13.3704 17.4841 13.3569 17.4507 13.3619 17.418C13.5703 16.0448 13.9582 14.7321 14.5011 13.5026C14.7194 13.008 14.5367 12.4356 14.0773 12.1508C13.3448 11.6967 12.5427 11.3454 11.6908 11.1157C11.1486 10.9693 10.5893 11.2765 10.3784 11.7973C10.036 12.6432 9.8316 13.5456 9.77969 14.4747C9.77613 14.5419 9.70324 14.5799 9.64671 14.5433L8.46698 13.7781C8.43782 13.7593 8.42182 13.7248 8.42609 13.69C8.48084 13.2608 8.5644 12.8381 8.67498 12.4238C8.89116 11.6135 8.20138 10.8302 7.38289 11.0126C6.78342 11.1463 6.19889 11.3412 5.63889 11.5933C5.61009 11.6064 5.57667 11.6029 5.55142 11.5837L4.43711 10.7428C4.38484 10.7029 4.39089 10.6212 4.44884 10.5902C5.94929 9.79272 7.63142 9.36926 9.34164 9.36926C9.38609 9.36926 9.43053 9.36997 9.47462 9.37104C9.83053 9.38099 10.1712 9.22313 10.3888 8.94153C10.6437 8.61157 10.9207 8.29619 11.2193 7.99788L12.2448 6.97246C12.6224 6.5945 12.419 5.95024 11.8938 5.85281C11.0643 5.6985 10.2113 5.61708 9.34164 5.61708C6.38129 5.61708 3.57844 6.51841 1.18271 8.21015C1.15178 8.23184 1.11053 8.23148 1.08031 8.20873L0.035689 7.42046C-0.0119554 7.38455 -0.0119554 7.3113 0.0360446 7.27575C2.74147 5.26153 5.94929 4.19201 9.34164 4.19201C10.8222 4.19201 12.2583 4.40499 13.6229 4.79859C14.0069 4.90952 14.42 4.79753 14.7027 4.51486L19.0504 0.16748L23.3754 4.49281C23.6588 4.77584 24.0737 4.88819 24.4581 4.77584C25.8398 4.37193 27.2961 4.15397 28.7976 4.15397C32.1914 4.15397 35.4032 5.22348 38.1104 7.24055C38.1584 7.2761 38.1584 7.34935 38.1107 7.38526ZM21.3278 4.58028L19.0504 2.30295L16.7614 4.59201C16.2469 5.1065 16.3557 5.9737 16.9886 6.33246C17.4782 6.60979 17.9514 6.91308 18.4072 7.23984C18.7873 7.51255 19.3011 7.51148 19.6798 7.23735C20.1374 6.90632 20.6128 6.59912 21.1045 6.31824C21.7342 5.95841 21.8408 5.09335 21.3278 4.58028ZM12.2273 9.1257C12.0261 9.3273 11.8376 9.53921 11.6595 9.75753L11.6602 9.75788C12.75 10.0061 13.7733 10.4263 14.7034 10.987C15.2023 11.2878 15.843 11.1783 16.1872 10.7083C16.4705 10.3207 16.7717 9.94704 17.0888 9.58792C17.5496 9.06597 17.4298 8.2681 16.84 7.89832C16.3553 7.59468 15.8515 7.31948 15.3313 7.07521C14.9036 6.87433 14.3959 6.95717 14.062 7.29104L12.2273 9.1257ZM17.2503 13.1246C18.0147 14.0146 18.6291 15.0361 19.0632 16.1476L19.0636 16.1472C19.4931 15.0347 20.1015 14.0103 20.8613 13.1172C21.1912 12.7293 21.2204 12.1682 20.9253 11.7529C20.5971 11.2914 20.2423 10.8501 19.8629 10.4317C19.4309 9.95486 18.6679 9.95628 18.2376 10.4345C17.8597 10.8544 17.5066 11.2967 17.1802 11.7597C16.8865 12.1764 16.9182 12.7381 17.2503 13.1246ZM26.4229 9.7337C26.2501 9.52357 26.0673 9.32019 25.8728 9.1257L25.8718 9.12606L24.0232 7.27717C23.6883 6.94224 23.1788 6.85975 22.7507 7.06277C22.2327 7.30846 21.7313 7.58472 21.2492 7.88908C20.6604 8.26064 20.5434 9.05957 21.0067 9.57975C21.326 9.93815 21.6289 10.3111 21.9144 10.698C22.2608 11.1666 22.9018 11.2733 23.3996 10.9707C24.3237 10.4089 25.3402 9.98686 26.4229 9.7337ZM54.7773 23.8858C58.7325 23.9544 61.1834 21.6056 61.2559 17.4527C61.3285 13.3002 58.9615 10.8671 55.0063 10.7981C51.0511 10.7288 48.6003 13.0779 48.5277 17.2305C48.4552 21.3834 50.8221 23.8164 54.7773 23.8858ZM54.8065 22.2132C51.8042 22.161 50.004 20.2054 50.0556 17.2571C50.1071 14.3085 51.9745 12.4173 54.9765 12.4696C57.9606 12.5215 59.7789 14.4774 59.7274 17.4257C59.6758 20.3743 57.7907 22.2655 54.8065 22.2132ZM74.0495 18.0982C73.9816 21.9812 72.1132 23.9449 68.6973 23.8852C65.5332 23.8297 63.4404 22.1568 63.5158 17.8425L63.5731 14.5703C63.5948 13.3298 63.5592 12.2863 63.3103 11.077L63.3135 10.8975L65.4707 10.9351L65.4675 11.1147C65.194 12.3506 65.1222 13.3746 65.1005 14.6329L65.0436 17.887C64.9985 20.4758 65.9926 22.2375 68.7254 22.2852C71.3683 22.3314 72.4765 20.6603 72.5231 17.9816L72.5793 14.7634C72.6013 13.5048 72.5651 12.4793 72.335 11.2345L72.3382 11.055L74.4954 11.0927L74.4922 11.2722C74.2017 12.4541 74.1295 13.4959 74.1082 14.7179L74.0491 18.0978L74.0495 18.0982ZM77.8828 20.1715L77.9159 18.2842L80.8638 18.3354L83.8277 23.7132H86.0421C85.0387 22.473 84.2473 21.2723 83.5504 19.983L82.4318 18.1295C84.0585 17.6723 85.2834 16.5249 85.3147 14.7272C85.3566 12.3358 83.2222 10.9861 80.7952 10.9438L76.211 10.8634L76.2082 11.0252C76.4396 12.1982 76.4741 13.2954 76.4531 14.5L76.3547 20.1452C76.3344 21.2958 76.264 22.6028 75.9927 23.7132H78.1321C77.9003 22.5758 77.8626 21.3221 77.8828 20.1715ZM80.5118 16.8908L77.9411 16.846L77.9817 14.5263C77.9941 13.8074 78.024 13.1425 78.1075 12.4606L80.5886 12.5039C81.9187 12.5274 83.7815 12.9555 83.7513 14.6991C83.7193 16.515 81.8419 16.9139 80.5118 16.8908ZM87.6787 23.7678H87.6819C87.9536 22.6397 88.0264 21.1847 88.0467 20.016L88.1438 14.4612C88.164 13.2925 88.1288 12.213 87.9152 11.0766L87.9184 10.8967L89.8419 10.9305L96.7368 20.3698C96.9203 20.6208 97.3178 20.495 97.3232 20.1842L97.4216 14.5515C97.4419 13.4009 97.3896 12.2674 97.1738 11.2384L97.177 11.0589L99.3164 11.0958L99.3132 11.2758C99.043 12.3318 98.969 13.4816 98.9484 14.6503L98.7891 23.7686H97.2791L90.2615 14.1184C90.078 13.867 89.6805 13.9929 89.6752 14.304L89.5749 20.0438C89.5543 21.2121 89.5895 22.6318 89.8213 23.7689H87.6787V23.7678ZM101.182 23.7668L101.182 23.7679L101.181 23.7668H101.182ZM101.182 23.7668L101.185 23.4465C101.422 22.2454 101.515 21.0426 101.536 19.8198L101.633 14.2831C101.651 13.2225 101.58 12.1782 101.364 11.1311L101.367 10.9515L109.367 11.0909L109.715 12.8054L109.712 12.9853C108.816 12.7898 107.882 12.7194 106.929 12.7026L103.19 12.6372L103.122 16.5202L107.852 16.4769L107.824 18.0769L103.099 17.8145L103.026 22.0033L106.406 22.0623C107.574 22.0826 108.673 21.9937 109.844 21.8525L109.841 22.0321L109.307 23.7668H101.182ZM119.596 13.2349C119.984 12.6482 120.268 11.8258 120.282 11.0529L122.997 11.1005L122.993 11.2801C122.206 12.0754 121.599 12.8922 121.081 13.6922L118.489 17.5677C117.915 18.426 117.6 19.4319 117.582 20.4644C117.563 21.5613 117.674 22.5352 117.834 23.6168L117.831 23.7675H115.692L115.695 23.5794C115.894 22.5042 116.035 21.5346 116.054 20.4381C116.072 19.4052 115.792 18.389 115.248 17.5108L112.793 13.5474C112.304 12.7293 111.743 11.8927 110.984 11.0703L110.987 10.8904L113.684 10.9377C113.67 11.7288 113.891 12.4698 114.293 13.1421L116.614 16.9245C116.738 17.1268 117.031 17.1318 117.162 16.9334L119.597 13.2349H119.596ZM44.5106 11.1936L44.5138 11.014L46.6531 11.0514L46.65 11.2309C46.4117 12.5219 46.2987 13.8507 46.2756 15.163L46.2123 18.7943C46.1522 22.2279 44.81 23.9129 41.9516 23.8631C41.0884 23.8478 39.7522 23.6366 39.0386 23.3006V21.6003C39.0396 21.6007 39.0418 21.6018 39.0418 21.6018V21.6003C39.541 21.8428 40.6862 22.1867 41.8187 22.2062C44.0299 22.245 44.6446 21.0147 44.6848 18.7317L44.7481 15.1004C44.7708 13.8059 44.704 12.4736 44.5106 11.1936Z" fill="currentColor" style="fill:#323B4A;fill:color(display-p3 0.1961 0.2314 0.2902);fill-opacity:1;"></path>
</svg>